<svg xmlns="http://www.w3.org/2000/svg" xmlns:xlink="http://www.w3.org/1999/xlink" fill="none" stroke="none" stroke-linecap="square" stroke-miterlimit="10" version="1.1" viewBox="0 0 1200 1200"><clipPath id="p.0"><path d="m0 0l1200.0 0l0 1200.0l-1200.0 0l0 -1200.0z" clip-rule="nonzero"/></clipPath><g clip-path="url(#p.0)"><path fill="#000" fill-opacity="0" fill-rule="evenodd" d="m0 0l1200.0 0l0 1200.0l-1200.0 0z"/><path fill="#f7f7f7" fill-rule="evenodd" d="m0 0l1200.0 0l0 1200.0l-1200.0 0z"/><path fill="#000" fill-opacity="0" fill-rule="evenodd" d="m37.75982 521.69293l297.79526 0l0 156.59839l-297.79526 0z"/><path fill-rule="evenodd" stroke="#434343" stroke-linecap="butt" stroke-linejoin="round" stroke-width="3" d="m37.75982 521.69293l297.79526 0l0 156.59839l-297.79526 0z"/><path fill="#434343" fill-rule="evenodd" d="m90.21398 568.79193c-1.7501144 0 -3.3650436 0.62713623 -4.8448257 1.8813477c-1.4655304 1.237915 -2.639389 2.9481812 -3.5215683 5.1308594c-0.86792755 2.1663208 -1.301918 4.5933228 -1.301918 7.280884c0 0.87957764 0.3059311 1.5392456 0.9177475 1.979065c0.6260681 0.4397583 1.3872833 0.65966797 2.2836838 0.65966797c0.46954346 0 0.86083984 -0.21990967 1.173851 -0.65966797c0.3272705 -0.43981934 0.74700165 -1.2216187 1.2592316 -2.34552c0.7256546 -1.6125488 1.4513092 -2.8586426 2.1769714 -3.7382202c0.7256546 -0.87957764 1.7714539 -1.3193359 3.1373978 -1.3193359c1.1098251 0 2.3121567 0.30944824 3.6069412 0.92840576c1.3090439 0.60266113 3.0947113 1.5637207 5.3570557 2.8830566c2.7745667 1.661438 5.1934357 2.9481812 7.256569 3.8603516c2.0773773 0.895874 4.16185 1.343811 6.2534485 1.343811c2.0915985 0 3.9911118 -0.61083984 5.6985397 -1.8324585c1.707428 -1.2216187 3.0591583 -2.9074707 4.0551453 -5.057556c1.0102386 -2.1500854 1.5153427 -4.5933228 1.5153427 -7.329773c0 -0.87957764 -0.29880524 -1.5392456 -0.89640045 -1.979065c-0.59760284 -0.4397583 -1.3659439 -0.65966797 -2.3050308 -0.65966797c-0.6402817 0 -1.173851 0.24432373 -1.600708 0.7329712c-0.426857 0.48864746 -0.96043396 1.2705078 -1.6007156 2.34552c-0.9390869 1.6126099 -1.8710403 2.850525 -2.7959137 3.7138062c-0.910614 0.84698486 -2.155632 1.2704468 -3.7350006 1.2704468c-0.6402817 0 -1.4014969 -0.22802734 -2.2836838 -0.68408203c-0.86792755 -0.47235107 -2.070259 -1.1972046 -3.6069412 -2.1744995c-2.8599396 -1.9057617 -5.549141 -3.4205933 -8.067596 -4.5444946c-2.5184555 -1.1239014 -5.2289963 -1.685852 -8.131622 -1.685852z"/><path fill="#434343" fill-rule="evenodd" d="m198.42221 550.3942c-0.5122223 0 -0.98176575 0.13842773 -1.4086304 0.41534424c-0.42684937 0.26062012 -0.746994 0.6352539 -0.9604187 1.1239014l-42.707047 97.486084c-0.17073059 0.39093018 -0.25610352 0.8062744 -0.25610352 1.2460327c0 0.8307495 0.30592346 1.5474243 0.91773987 2.1500854c0.6260681 0.6189575 1.3232574 0.9284668 2.0915985 0.9284668c1.0244598 0 1.814148 -0.5864258 2.369049 -1.7591553l42.514954 -97.19293c0.25611877 -0.58636475 0.38417053 -1.0994263 0.38417053 -1.5392456c0 -0.8306885 -0.2987976 -1.5148315 -0.8963928 -2.0523071c-0.5976105 -0.5375366 -1.2805786 -0.8062744 -2.0489197 -0.8062744z"/><path fill="#434343" fill-rule="evenodd" d="m232.0372 565.4202c-0.76834106 0 -1.4299774 0.39093018 -1.9848938 1.1727905c-0.5549164 0.78186035 -0.83236694 1.6369629 -0.83236694 2.5654297c0 1.3193359 0.5762634 2.2478027 1.728775 2.7853394l52.439377 24.408142l-51.799088 24.041687c-0.8964081 0.39093018 -1.3446045 1.1727905 -1.3446045 2.34552c0 0.9284668 0.28457642 1.8242798 0.853714 2.687622c0.5833893 0.84698486 1.2378845 1.2704468 1.9635468 1.2704468c0.17073059 0 0.38417053 -0.048828125 0.64027405 -0.14654541l55.576782 -26.46051c0.51223755 -0.24432373 0.9177246 -0.7411499 1.2165222 -1.4904175c0.29882812 -0.76556396 0.44821167 -1.6125488 0.44821167 -2.5410156c0 -0.87957764 -0.14938354 -1.685852 -0.44821167 -2.4188232c-0.2987976 -0.7329712 -0.70428467 -1.2216187 -1.2165222 -1.4659424l-56.345123 -26.533813c-0.2987976 -0.14660645 -0.5975952 -0.21990967 -0.8963928 -0.21990967z"/><path fill="#434343" fill-rule="evenodd" d="m407.4754 576.78143c-2.731903 0 -5.164978 1.1157227 -7.2992554 3.347229c-2.1342773 2.215271 -3.8203735 5.350769 -5.058258 9.406555l-0.3201294 -8.795715c-0.08538818 -1.9057617 -0.9177551 -2.8586426 -2.4971313 -2.8586426c-0.17074585 0 -0.5549011 0.04888916 -1.1524963 0.14660645l-10.500702 2.4188232c-0.725647 0.1954956 -1.2592163 0.5782471 -1.600708 1.1483765c-0.3414917 0.553772 -0.51223755 1.1727295 -0.51223755 1.8568726c0 0.7817993 0.23477173 1.4415283 0.7043152 1.9790039c0.46954346 0.5375366 1.0671387 0.8062744 1.7928162 0.8062744c0.42684937 0 0.85369873 -0.07330322 1.2805786 -0.21984863l6.9150696 -1.6125488l0 45.957703l-6.9150696 0c-0.85372925 0 -1.5153503 0.28503418 -1.9848938 0.8551636c-0.46954346 0.553772 -0.7043152 1.2216187 -0.7043152 2.003418c0 0.8307495 0.25610352 1.5637207 0.76834106 2.1989746c0.51223755 0.6352539 1.2378845 0.95288086 2.1769714 0.95288086l18.120087 0c0.9817505 0 1.7572021 -0.30133057 2.326355 -0.90405273c0.583374 -0.6189575 0.87506104 -1.34375 0.87506104 -2.1744995c0 -0.7817993 -0.27035522 -1.4659424 -0.81103516 -2.0523071c-0.52645874 -0.58636475 -1.2805786 -0.87957764 -2.262329 -0.87957764l-5.442444 0l0 -30.858398c0.08538818 -2.8341675 0.690094 -5.529907 1.814148 -8.087158c1.1382751 -2.5736084 2.5682678 -4.6503296 4.289917 -6.2303467c1.7358704 -1.5962524 3.521576 -2.3944092 5.3570557 -2.3944092c2.0489197 0 3.67807 1.1401978 4.887512 3.4205933c1.2236328 2.2640991 1.8354797 5.7905273 1.8354797 10.579346l0 36.428955c0 0.8307495 0.25610352 1.5637207 0.76834106 2.1989746c0.51223755 0.6352539 1.2378845 0.95288086 2.1769714 0.95288086l10.628754 0c0.85369873 0 1.5153198 -0.30133057 1.9848633 -0.90405273c0.46954346 -0.6189575 0.7043152 -1.34375 0.7043152 -2.1744995c0 -0.7817993 -0.22766113 -1.4659424 -0.6829529 -2.0523071c-0.44110107 -0.58636475 -1.0671387 -0.87957764 -1.8781738 -0.87957764l-7.5553894 0l0 -31.298157c0.04269409 -2.7364502 0.6473999 -5.3588867 1.814148 -7.8673096c1.1809692 -2.5247192 2.689209 -4.5526123 4.5246887 -6.08374c1.8354797 -1.5473633 3.6709595 -2.321106 5.5064697 -2.321106c2.0488892 0 3.6140442 1.1157837 4.695404 3.34729c1.0956116 2.21521 1.6434021 5.7661133 1.6434021 10.652649l0 36.428955c0 0.8307495 0.25613403 1.5637207 0.76834106 2.1989746c0.51223755 0.6352539 1.2378845 0.95288086 2.1769714 0.95288086l10.05249 0c0.85369873 0 1.5153503 -0.30133057 1.9848938 -0.90405273c0.46954346 -0.6189575 0.7043152 -1.34375 0.7043152 -2.1744995c0 -0.7817993 -0.22766113 -1.4659424 -0.6829834 -2.0523071c-0.44107056 -0.58636475 -1.0671387 -0.87957764 -1.8781738 -0.87957764l-6.9790955 0l0 -33.057312c0 -4.4956055 -0.53356934 -8.282654 -1.6007385 -11.361145c-1.0671387 -3.0785522 -2.511322 -5.375183 -4.3325806 -6.8900146c-1.8070374 -1.5148315 -3.8630676 -2.2722168 -6.168091 -2.2722168c-2.689209 0 -5.200531 1.001709 -7.534027 3.005188c-2.3192444 2.003479 -4.225891 4.8865356 -5.719879 8.64917c-0.9390869 -3.8603516 -2.4117432 -6.7678223 -4.4179688 -8.722473c-2.0062256 -1.9545898 -4.2685547 -2.9318848 -6.787018 -2.9318848z"/><path fill="#434343" fill-rule="evenodd" d="m498.84412 549.7345l-0.7043152 0.07330322l-26.763916 2.7853394c-0.6829834 0.097717285 -1.1951904 0.43164062 -1.5366821 1.001709c-0.3414917 0.553833 -0.51223755 1.1972046 -0.51223755 1.9301758c0 0.8307495 0.23477173 1.555603 0.7043152 2.1745605c0.46954346 0.60266113 1.1098328 0.9039917 1.9208679 0.9039917l0.44818115 -0.07330322l22.602081 -2.0523682l0 73.88422l-23.626526 0c-0.85372925 0 -1.5153503 0.2932129 -1.9848938 0.87957764c-0.46954346 0.58636475 -0.7043152 1.2705078 -0.7043152 2.0523071c0 0.8307495 0.25613403 1.555542 0.76834106 2.1744995c0.51223755 0.60272217 1.2378845 0.90405273 2.1769714 0.90405273l51.22281 0c0.81103516 0 1.4371338 -0.2932129 1.8781738 -0.87957764c0.45532227 -0.5864258 0.6829834 -1.2949219 0.6829834 -2.1256714c0 -0.7817993 -0.22766113 -1.47406 -0.6829834 -2.0767822c-0.44104004 -0.6189575 -1.0457764 -0.92840576 -1.8140869 -0.92840576l-21.769745 0l0 -78.28204c0 -0.7329712 -0.21340942 -1.3031006 -0.6402588 -1.7103271c-0.42687988 -0.4234619 -0.981781 -0.6352539 -1.6647644 -0.6352539z"/><path fill="#434343" fill-rule="evenodd" d="m593.9265 576.78143c-11.866638 0 -20.233032 4.275696 -25.099182 12.827087l-0.25610352 -7.622986c-0.04272461 -1.3682251 -0.22766113 -2.3943481 -0.55493164 -3.0784912c-0.31304932 -0.68408203 -0.9390869 -1.0261841 -1.8781738 -1.0261841c-0.42687988 0 -0.9177246 0.07330322 -1.4726562 0.21990967l-10.948914 2.4921265c-0.5975952 0.14660645 -1.0671387 0.4805298 -1.4085693 1.00177c-0.3414917 0.50494385 -0.51226807 1.0994263 -0.51226807 1.7835693c0 0.7817993 0.22058105 1.4659424 0.6616211 2.0523071c0.45532227 0.5864258 1.088501 0.87957764 1.8995361 0.87957764c0.3414917 0 0.5975952 -0.024414062 0.76831055 -0.07330322l7.8115234 -1.8323975l0 45.957703l-11.717224 0c-0.85369873 0 -1.5153809 0.2932129 -1.9849243 0.87957764c-0.46954346 0.58636475 -0.70428467 1.2705078 -0.70428467 2.0523071c0 0.8307495 0.25610352 1.555542 0.76831055 2.1744995c0.51226807 0.60272217 1.237915 0.90405273 2.177002 0.90405273l39.057434 0c0.8109741 0 1.451294 -0.30133057 1.9208374 -0.90405273c0.46954346 -0.6189575 0.70428467 -1.3193359 0.70428467 -2.1011963c0 -0.8306885 -0.22766113 -1.5392456 -0.68292236 -2.1256104c-0.44110107 -0.58636475 -1.0671997 -0.87957764 -1.8781738 -0.87957764l-21.51361 0l0 -32.54425c1.7073975 -4.8864746 4.7594604 -8.608398 9.156067 -11.16571c4.3966675 -2.5735474 9.454895 -3.8603516 15.174805 -3.8603516l0 8.795776c0 1.2216187 0.2987671 2.1663208 0.8963623 2.8341675c0.5975952 0.6515503 1.3019409 0.9772949 2.112976 0.9772949c0.85369873 0 1.5864868 -0.35021973 2.1983032 -1.0505981c0.6260376 -0.7166748 0.9390869 -1.7346802 0.9390869 -3.0540771l0 -10.115112c0 -1.4659424 -0.42687988 -2.5653687 -1.2805786 -3.2984009c-0.85369873 -0.7329712 -2.3050537 -1.0994263 -4.353943 -1.0994263z"/><path fill="#434343" fill-rule="evenodd" d="m654.5615 576.78143c-5.3356934 0 -10.201843 1.1972046 -14.598511 3.5915527c-4.3966064 2.3944092 -7.8897095 5.8394165 -10.479309 10.335022c-2.5753784 4.4956055 -3.8630981 9.77301 -3.8630981 15.832336c0 6.401306 1.1952515 11.939392 3.5856323 16.614136c2.3903809 4.6585083 5.7625732 8.233826 10.116516 10.725952c4.353943 2.4921265 9.369507 3.7381592 15.046692 3.7381592c3.628296 0 7.477112 -0.789978 11.546509 -2.369934c4.083557 -1.5963135 7.2351685 -3.7870483 9.454834 -6.5723877c0.7683716 -0.9772949 1.1525269 -2.003479 1.1525269 -3.0784912c0 -1.0261841 -0.21343994 -1.7835693 -0.6402588 -2.2722778c-0.42687988 -0.48864746 -0.9604492 -0.7329712 -1.600708 -0.7329712c-1.0244751 0 -1.8995361 0.39093018 -2.625183 1.1727905c-2.6465454 2.7853394 -5.29303 4.7887573 -7.939575 6.010437c-2.6464844 1.2216187 -5.9332886 1.8323975 -9.860352 1.8323975c-6.744385 0 -12.115662 -2.109314 -16.113892 -6.328003c-3.9839478 -4.2349854 -5.975952 -10.481628 -5.975952 -18.739807c0 -4.935425 0.9390869 -9.17041 2.8172607 -12.704956c1.8781738 -3.5509033 4.595825 -6.279175 8.152954 -8.184937c3.57135 -1.9057617 7.8328247 -2.8586426 12.784363 -2.8586426c2.3049927 0 4.510437 0.24438477 6.616272 0.7330322c2.1200562 0.48864746 4.2472534 1.34375 6.381531 2.5653687l0.3201294 3.005249c0.42687988 4.30011 0.87506104 7.3460693 1.3446045 9.137756c0.46954346 1.7754517 1.3232422 2.663208 2.5611572 2.663208c1.237854 0 2.184082 -0.5375366 2.838562 -1.6125488c0.6687622 -1.0750732 1.0031128 -2.4921265 1.0031128 -4.2512817c0 -6.30365 -1.9848633 -10.921387 -5.954651 -13.8533325c-3.9697876 -2.9318848 -9.326843 -4.397827 -16.071167 -4.397827z"/><path fill="#434343" fill-rule="evenodd" d="m735.8137 582.7918c3.927124 0 7.277954 1.0994873 10.05249 3.2984009c2.7745972 2.1989746 4.866211 5.1553345 6.2748413 8.86908c1.4086304 3.713745 2.112915 7.7940063 2.112915 12.240723c0 4.4956055 -0.6829834 8.592102 -2.0488892 12.289612c-1.3659668 3.6811523 -3.3935547 6.621216 -6.0827026 8.820129c-2.689209 2.1989746 -5.954712 3.2984009 -9.796387 3.2984009c-4.0978394 0 -7.6763306 -0.9528198 -10.735474 -2.8585815c-3.0449219 -1.9057617 -5.5704956 -4.4956055 -7.576721 -7.7695923l0 -28.732727c4.3966675 -6.303589 10.329956 -9.455444 17.799927 -9.455444zm-20.425049 -32.910706c-0.17077637 0 -0.5975952 0.04888916 -1.2805786 0.14660645l-12.10144 1.3926392c-0.725647 0.14660645 -1.2592163 0.51312256 -1.600708 1.0994873c-0.3414917 0.58636475 -0.51220703 1.2216187 -0.51220703 1.9057617c0 0.78186035 0.23480225 1.4415283 0.7043457 1.9790039c0.46948242 0.5375366 1.0671387 0.8062744 1.7927856 0.8062744c0.25610352 0 0.49084473 -0.024414062 0.70428467 -0.07324219c0.21343994 -0.04888916 0.40551758 -0.09777832 0.57629395 -0.14660645l8.195618 -0.5864258l0 74.543884c0 2.2478027 0.23480225 3.7626343 0.7043457 4.5444946c0.46954346 0.7817993 1.1098022 1.1727295 1.9208374 1.1727295c0.6829834 0 1.2449951 -0.14660645 1.6860962 -0.4397583c0.45532227 -0.2932129 0.8323364 -1.00177 1.1311646 -2.1256714c0.2987671 -1.1239014 0.44818115 -2.8585815 0.44818115 -5.2041016c2.2196655 2.5898438 4.930237 4.69104 8.131653 6.303589c3.201416 1.6125488 6.7229614 2.4188232 10.564697 2.4188232c4.9088745 0 9.163208 -1.2949219 12.7630005 -3.8847656c3.6140747 -2.5898438 6.381531 -6.1814575 8.302368 -10.77478c1.9208984 -4.5933228 2.8812866 -9.8463745 2.8812866 -15.759033c0 -5.8149414 -0.9817505 -11.027283 -2.9453125 -15.636841c-1.963501 -4.6259155 -4.7736816 -8.241943 -8.43042 -10.8480835c-3.642517 -2.6224365 -7.918213 -3.9336548 -12.827026 -3.9336548c-3.8843994 0 -7.2494507 0.65966797 -10.095154 1.9790039c-2.831482 1.319397 -5.527832 3.2495728 -8.088989 5.7905273l0 -31.811218c0 -1.9057617 -0.87506104 -2.8586426 -2.625122 -2.8586426z"/><path fill="#434343" fill-rule="evenodd" d="m811.68756 576.78143c-5.8479004 0 -10.749695 1.2705078 -14.7052 3.8114624c-3.9413452 2.5410156 -5.9119873 6.8167114 -5.9119873 12.827148c0 4.1046753 1.1738892 7.329773 3.5216064 9.675293c2.3476562 2.34552 5.6558228 3.982483 9.924377 4.9109497l17.031616 3.8114624c2.7318726 0.5864258 4.6740723 1.6533203 5.826599 3.2006836c1.1525269 1.5311279 1.7287598 3.5427246 1.7287598 6.034851c0 3.5671997 -1.2947998 6.222168 -3.8843994 7.965027c-2.5753784 1.7265625 -6.2961426 2.5898438 -11.1622925 2.5898438c-3.628296 0 -6.9364624 -0.6351929 -9.924438 -1.9057007c-2.987976 -1.2705078 -5.3499756 -3.029663 -7.0858154 -5.277466c-1.7216797 -2.2478027 -2.5825195 -4.739929 -2.5825195 -7.4763794c0 -1.5636597 -0.20629883 -2.5898438 -0.6188965 -3.0784912c-0.3984375 -0.48864746 -0.9604492 -0.7329712 -1.6860962 -0.7329712c-0.5975952 0 -1.1311646 0.31762695 -1.600708 0.95288086c-0.46954346 0.6352539 -0.7043457 1.5880737 -0.7043457 2.8585815l-0.12805176 16.565308c0 0.8306885 0.25610352 1.5148315 0.7683716 2.0523682c0.51220703 0.5374756 1.1098022 0.8062744 1.7927856 0.8062744c0.6402588 0 1.1809692 -0.25250244 1.6220703 -0.7574463c0.45526123 -0.52124023 0.6829834 -1.2949219 0.6829834 -2.321106l0 -4.397827c2.3476562 3.0784912 5.236084 5.30188 8.665161 6.670105c3.4432983 1.3682251 7.1712036 2.0523071 11.183655 2.0523071c6.3601685 0 11.425537 -1.3763428 15.196106 -4.1290894c3.78479 -2.769043 5.677185 -6.8900146 5.677185 -12.362915c0 -5.033081 -1.1240234 -8.771301 -3.3721313 -11.214539c-2.2338867 -2.4432983 -5.4210815 -4.1291504 -9.5616455 -5.057556l-16.583374 -3.8115234c-3.0307007 -0.7817993 -5.1436157 -1.8649902 -6.338806 -3.2495117c-1.1951904 -1.4008179 -1.7927856 -3.2250977 -1.7927856 -5.4729004c0 -6.352478 4.524658 -9.528748 13.574036 -9.528748c4.65271 0 8.586914 0.7574463 11.802612 2.2722778c3.2298584 1.5148315 5.4210815 3.8114624 6.5735474 6.8899536c0.04272461 2.296692 0.21343994 3.9092407 0.51226807 4.8377075c0.2987671 0.92840576 0.9817505 1.3926392 2.0488892 1.3926392c0.85369873 0 1.4726562 -0.21990967 1.8568115 -0.65966797c0.3842163 -0.43981934 0.6189575 -1.1239014 0.7043457 -2.0523682l0.12805176 -14.732849c0 -1.1239014 -0.25610352 -2.003479 -0.7683716 -2.638733c-0.51220703 -0.6352539 -1.1311646 -0.95288086 -1.8568115 -0.95288086c-0.725647 0 -1.3659058 0.33392334 -1.9208374 1.00177c-0.55493164 0.6515503 -0.81103516 1.5392456 -0.7683716 2.663147l0 2.7120361c-1.2805786 -1.9057617 -3.6495972 -3.5020142 -7.1071777 -4.7888184c-3.4575195 -1.3030396 -7.043091 -1.9545898 -10.756775 -1.9545898z"/><path fill="#434343" fill-rule="evenodd" d="m891.7873 582.7918c4.1831665 0 7.797241 1.0424805 10.842163 3.1273804c3.059143 2.0686646 5.385498 4.951721 6.979126 8.64917c1.6077881 3.6811523 2.4116821 7.8917236 2.4116821 12.631653c0 4.7887573 -0.80389404 9.031921 -2.4116821 12.72937c-1.5936279 3.6812134 -3.919983 6.5479736 -6.979126 8.600281c-3.0449219 2.0523682 -6.6589966 3.0784912 -10.842163 3.0784912c-4.1832275 0 -7.8043823 -1.026123 -10.863525 -3.0784912c-3.0449219 -2.0523071 -5.371277 -4.9190674 -6.979126 -8.600281c-1.5935669 -3.6974487 -2.3903809 -7.940613 -2.3903809 -12.72937c0 -4.739929 0.79681396 -8.9505005 2.3903809 -12.631653c1.6078491 -3.6974487 3.934204 -6.5805054 6.979126 -8.64917c3.059143 -2.0849 6.680298 -3.1273804 10.863525 -3.1273804zm0 -6.010376c-5.378418 0 -10.116516 1.237915 -14.214355 3.713745c-4.0978394 2.4595337 -7.277893 5.985962 -9.540222 10.579285c-2.2623901 4.593384 -3.3935547 9.968506 -3.3935547 16.12555c0 6.1081543 1.1311646 11.458862 3.3935547 16.052246c2.262329 4.5933228 5.442383 8.136047 9.540222 10.628174c4.0978394 2.4921265 8.8359375 3.7381592 14.214355 3.7381592c5.378357 0 10.116516 -1.2460327 14.214294 -3.7381592c4.0978394 -2.4921265 7.277954 -6.034851 9.540283 -10.628174c2.262329 -4.593384 3.3934937 -9.944092 3.3934937 -16.052246c0 -6.1570435 -1.1311646 -11.532166 -3.3934937 -16.12555c-2.262329 -4.5933228 -5.442444 -8.119751 -9.540283 -10.579285c-4.0977783 -2.47583 -8.8359375 -3.713745 -14.214294 -3.713745z"/><path fill="#434343" fill-rule="evenodd" d="m952.74243 577.5877c-0.17071533 0 -0.42681885 0.048828125 -0.76831055 0.14660645l-11.205017 2.5653687c-0.76831055 0.1954956 -1.3446045 0.5375366 -1.7287598 1.0261841c-0.38415527 0.48864746 -0.57629395 1.0750732 -0.57629395 1.7591553c0 0.8306885 0.27746582 1.5637207 0.83239746 2.1989136c0.55493164 0.6352539 1.2592163 0.95288086 2.112915 0.95288086c0.46954346 0 0.83239746 -0.048828125 1.088501 -0.14660645l6.2748413 -1.4659424l0 32.54425c0 4.055786 0.73272705 7.622986 2.1983032 10.701477c1.4797363 3.0784912 3.6282349 5.4729004 6.4454956 7.1831665c2.8172607 1.7103271 6.1467896 2.5654297 9.988464 2.5654297c4.012451 0 7.8755493 -1.0505981 11.589172 -3.1517944c3.713684 -2.1011963 6.5095825 -4.739929 8.387756 -7.9161377l0.3201294 6.376892c0.042663574 1.2216187 0.3414917 2.1419067 0.89642334 2.7608643c0.5548706 0.60266113 1.2592163 0.9039917 2.112915 0.9039917l0.44818115 0l11.909302 -1.4659424c0.7683716 -0.19543457 1.3659668 -0.59454346 1.7928467 -1.1972046c0.42681885 -0.6189575 0.6402588 -1.2949219 0.6402588 -2.027893c0 -0.7329712 -0.21343994 -1.343811 -0.6402588 -1.8324585c-0.42687988 -0.48864746 -1.0671387 -0.7329712 -1.9208984 -0.7329712l-0.38415527 0l-9.476196 0.8062744l0 -50.062378c0 -0.68414307 -0.20629883 -1.2705078 -0.6189575 -1.7591553c-0.39837646 -0.48864746 -0.9177246 -0.7329712 -1.5580444 -0.7329712c-0.17071533 0 -0.42681885 0.048828125 -0.76831055 0.14660645l-11.140991 2.5653687c-0.81103516 0.1954956 -1.4228516 0.553833 -1.8354492 1.0750732c-0.3984375 0.50494385 -0.59765625 1.0994873 -0.59765625 1.7835693c0 0.8306885 0.27746582 1.5636597 0.83239746 2.1989136c0.55493164 0.6352539 1.2805786 0.95288086 2.176941 0.95288086c0.3842163 0 0.7683716 -0.07330322 1.1525269 -0.21990967l6.2107544 -1.4659424l0 34.816467c-0.9390259 2.2478027 -2.468628 4.300171 -4.588684 6.1570435c-2.105835 1.8568726 -4.4819946 3.322815 -7.128479 4.397827c-2.6465454 1.0750732 -5.229004 1.6125488 -7.7474976 1.6125488c-4.140503 0 -7.270813 -1.3030396 -9.390808 -3.9091797c-2.105835 -2.6224365 -3.1587524 -6.059326 -3.1587524 -10.310547l0 -37.308594c0 -0.68414307 -0.20635986 -1.2705078 -0.6189575 -1.7591553c-0.3984375 -0.48864746 -0.9177246 -0.7329712 -1.5580444 -0.7329712z"/><path fill="#434343" fill-rule="evenodd" d="m1049.8738 576.78143c-5.8480225 0 -10.749756 1.2705078 -14.7052 3.8114624c-3.9414062 2.5410156 -5.9119873 6.8167114 -5.9119873 12.827148c0 4.1046753 1.1738281 7.329773 3.5214844 9.675293c2.3477783 2.34552 5.655884 3.982483 9.924438 4.9109497l17.031616 3.8114624c2.7319336 0.5864258 4.6740723 1.6533203 5.82666 3.2006836c1.1524658 1.5311279 1.7287598 3.5427246 1.7287598 6.034851c0 3.5671997 -1.2947998 6.222168 -3.8843994 7.965027c-2.5754395 1.7265625 -6.2961426 2.5898438 -11.1623535 2.5898438c-3.628296 0 -6.9364014 -0.6351929 -9.924438 -1.9057007c-2.988037 -1.2705078 -5.3498535 -3.029663 -7.0858154 -5.277466c-1.7216797 -2.2478027 -2.5825195 -4.739929 -2.5825195 -7.4763794c0 -1.5636597 -0.20629883 -2.5898438 -0.6188965 -3.0784912c-0.3984375 -0.48864746 -0.9604492 -0.7329712 -1.6860352 -0.7329712c-0.59765625 0 -1.1312256 0.31762695 -1.6008301 0.95288086c-0.46948242 0.6352539 -0.70422363 1.5880737 -0.70422363 2.8585815l-0.12805176 16.565308c0 0.8306885 0.25610352 1.5148315 0.76831055 2.0523682c0.51220703 0.5374756 1.1098633 0.8062744 1.7928467 0.8062744c0.6402588 0 1.1809082 -0.25250244 1.6219482 -0.7574463c0.45544434 -0.52124023 0.6829834 -1.2949219 0.6829834 -2.321106l0 -4.397827c2.3477783 3.0784912 5.236206 5.30188 8.665283 6.670105c3.4432373 1.3682251 7.1711426 2.0523071 11.183594 2.0523071c6.3602295 0 11.425537 -1.3763428 15.196167 -4.1290894c3.78479 -2.769043 5.677124 -6.8900146 5.677124 -12.362915c0 -5.033081 -1.1240234 -8.771301 -3.3721924 -11.214539c-2.2337646 -2.4432983 -5.4210205 -4.1291504 -9.561523 -5.057556l-16.583374 -3.8115234c-3.0307617 -0.7817993 -5.1436768 -1.8649902 -6.338867 -3.2495117c-1.1951904 -1.4008179 -1.7928467 -3.2250977 -1.7928467 -5.4729004c0 -6.352478 4.5247803 -9.528748 13.574097 -9.528748c4.65271 0 8.586914 0.7574463 11.802612 2.2722778c3.2298584 1.5148315 5.4210205 3.8114624 6.5736084 6.8899536c0.04260254 2.296692 0.2133789 3.9092407 0.51220703 4.8377075c0.29882812 0.92840576 0.9818115 1.3926392 2.0489502 1.3926392c0.8536377 0 1.4726562 -0.21990967 1.8568115 -0.65966797c0.38415527 -0.43981934 0.6188965 -1.1239014 0.7043457 -2.0523682l0.12805176 -14.732849c0 -1.1239014 -0.2562256 -2.003479 -0.7684326 -2.638733c-0.51220703 -0.6352539 -1.1311035 -0.95288086 -1.8568115 -0.95288086c-0.72558594 0 -1.3659668 0.33392334 -1.9207764 1.00177c-0.55493164 0.6515503 -0.81103516 1.5392456 -0.7684326 2.663147l0 2.7120361c-1.2805176 -1.9057617 -3.6495361 -3.5020142 -7.1071777 -4.7888184c-3.4575195 -1.3030396 -7.043091 -1.9545898 -10.756714 -1.9545898z"/><path fill="#434343" fill-rule="evenodd" d="m1142.395 606.9801l0 15.539124c-2.3050537 2.7853394 -5.2646484 5.0005493 -8.878662 6.645691c-3.5998535 1.6288452 -7.2991943 2.4432373 -11.098267 2.4432373c-2.9453125 0 -5.307251 -0.83880615 -7.0858154 -2.5165405c-1.7644043 -1.6939697 -2.6464844 -4.397888 -2.6464844 -8.111633c0 -3.4205322 1.0244141 -6.010376 3.0733643 -7.7695312c2.0488281 -1.7591553 4.809204 -2.9889526 8.281006 -3.689331c3.485962 -0.7166748 8.729248 -1.4659424 15.729614 -2.2478027l2.6252441 -0.2932129zm-12.933838 -30.19867c-4.353882 0 -8.216919 0.65966797 -11.589111 1.9790039c-3.3721924 1.319397 -5.9973145 3.1518555 -7.8754883 5.4973755c-1.8781738 2.34552 -2.8172607 4.984253 -2.8172607 7.9161377c0 1.5637207 0.3272705 2.8341675 0.98168945 3.8115234c0.66882324 0.9772949 1.6220703 1.4659424 2.8599854 1.4659424c1.451294 0 2.47583 -0.95288086 3.0733643 -2.8586426c0.59765625 -1.9057007 0.9818115 -4.739929 1.1524658 -8.502563c2.2624512 -1.1727295 4.510498 -2.0115967 6.744385 -2.5165405c2.248169 -0.52124023 4.716797 -0.78186035 7.406006 -0.78186035c4.7807617 0 8.138672 1.5148315 10.073853 4.5444946c1.9492188 3.029663 2.9239502 7.403076 2.9239502 13.1203l0 1.4659424l-4.6740723 0.3665161c-6.9577637 0.5375366 -12.499878 1.2216187 -16.626099 2.0523071c-4.1120605 0.8307495 -7.576782 2.5410156 -10.394043 5.1308594c-2.8172607 2.5898438 -4.22583 6.4257812 -4.22583 11.507751c0 5.033142 1.3446045 9.056335 4.0338135 12.069702c2.689209 2.9970703 6.4241943 4.4956055 11.204956 4.4956055c4.439331 0 8.544312 -0.9039917 12.314819 -2.711975c3.78479 -1.8080444 6.7230225 -4.055847 8.814575 -6.743408c0.5123291 3.4694214 1.5153809 5.8067627 3.0093994 7.012146c1.4940186 1.1890259 3.3294678 1.7835693 5.5064697 1.7835693c1.9207764 0 3.7634277 -0.47235107 5.52771 -1.4171143c1.7786865 -0.96099854 3.35083 -2.2722168 4.716797 -3.9335938c0.42687988 -0.4887085 0.6402588 -1.0994873 0.6402588 -1.8324585c0 -0.78186035 -0.23474121 -1.4904175 -0.70422363 -2.1256714c-0.4696045 -0.6352539 -1.0245361 -0.95288086 -1.6647949 -0.95288086c-0.55493164 0 -1.0671387 0.2932129 -1.5366211 0.87957764c-0.725708 0.87957764 -1.7075195 1.7021484 -2.9453125 2.4677124c-1.237915 0.7492676 -2.4117432 1.1239014 -3.5216064 1.1239014c-1.0244141 0 -1.8354492 -0.30133057 -2.4331055 -0.9039917c-0.5975342 -0.6189575 -0.8963623 -1.7835693 -0.8963623 -3.4938965l0 -22.868896c0 -5.961548 -0.55493164 -10.90509 -1.6647949 -14.830566c-1.1098633 -3.9418335 -3.066162 -6.963318 -5.8692627 -9.064514c-2.7888184 -2.1011963 -6.6375732 -3.1517944 -11.546509 -3.1517944z"/><path fill="#000" fill-opacity="0" fill-rule="evenodd" d="m370.26276 678.3071l89.5748 0"/><path fill-rule="evenodd" stroke="#434343" stroke-linecap="butt" stroke-linejoin="round" stroke-width="3" d="m370.26276 678.3071l89.5748 0"/></g></svg>