<?xml version="1.0" standalone="no"?>
<!DOCTYPE svg PUBLIC "-//W3C//DTD SVG 20010904//EN"
 "http://www.w3.org/TR/2001/REC-SVG-20010904/DTD/svg10.dtd">
<svg version="1.0" xmlns="http://www.w3.org/2000/svg"
 width="1191.000000pt" height="243.000000pt" viewBox="0 0 1191.000000 243.000000"
 preserveAspectRatio="xMidYMid meet">
<metadata>
Created by potrace 1.16, written by Peter Selinger 2001-2019
</metadata>
<g transform="translate(0.000000,243.000000) scale(0.100000,-0.100000)"
fill="#000000" stroke="none">
<path d="M335 2018 c-3 -7 -4 -366 -3 -798 l3 -785 1500 0 1500 0 0 795 0 795
-1498 3 c-1193 2 -1499 0 -1502 -10z m2975 -788 l0 -770 -1475 0 -1475 0 0
770 0 770 1475 0 1475 0 0 -770z"/>
<path d="M1933 1708 c-23 -30 -434 -988 -428 -998 12 -19 42 -10 54 18 118
255 421 967 417 978 -7 17 -30 18 -43 2z"/>
<path d="M2266 1555 c-3 -8 -3 -21 -1 -28 3 -6 121 -66 263 -131 141 -65 261
-122 265 -126 4 -4 -107 -60 -248 -126 -141 -65 -260 -123 -266 -130 -13 -16
-1 -44 20 -44 31 0 571 263 576 281 4 10 2 27 -4 37 -10 18 -556 282 -584 282
-8 0 -17 -7 -21 -15z"/>
<path d="M832 1524 c-30 -21 -52 -66 -52 -107 0 -52 25 -55 55 -7 33 52 56 52
151 -1 113 -62 187 -53 220 26 36 87 2 123 -53 57 -41 -49 -63 -52 -116 -16
-90 61 -162 78 -205 48z"/>
<path d="M4796 1715 c-117 -13 -140 -23 -129 -52 6 -15 51 -16 176 -5 l77 8 0
-373 0 -373 -131 0 c-130 0 -130 0 -127 -22 l3 -23 275 0 275 0 3 22 c3 22 1
22 -115 25 l-118 3 -5 400 -5 400 -30 1 c-16 1 -84 -4 -149 -11z"/>
<path d="M7043 1721 c-58 -7 -79 -21 -69 -47 5 -14 16 -16 61 -11 l55 6 2
-397 c3 -389 3 -397 23 -397 14 0 21 8 23 28 2 15 5 27 6 27 2 0 30 -16 62
-35 50 -30 66 -35 123 -35 147 0 227 90 238 271 7 103 -12 178 -60 240 -47 61
-96 84 -182 84 -69 -1 -94 -9 -152 -51 l-23 -16 0 165 c0 171 -2 181 -43 176
-7 -1 -36 -5 -64 -8z m355 -335 c73 -38 112 -117 112 -225 0 -105 -29 -178
-90 -223 -62 -45 -168 -30 -232 34 l-38 38 0 153 0 153 28 27 c56 53 161 74
220 43z"/>
<path d="M4010 1453 c-28 -10 -53 -38 -71 -78 l-19 -40 0 46 c0 60 -15 73 -67
61 -21 -6 -50 -13 -65 -16 -19 -4 -28 -13 -28 -27 0 -26 20 -33 64 -21 l36 10
0 -234 0 -234 -46 0 c-41 0 -45 -2 -42 -22 3 -22 8 -23 112 -26 77 -2 112 1
117 9 13 22 -2 38 -39 41 l-37 3 -3 160 c-2 103 1 176 9 203 21 77 93 132 135
104 33 -22 39 -58 44 -287 l5 -230 69 -3 c46 -2 72 1 77 9 14 24 -3 38 -49 41
l-47 3 0 180 c0 156 3 185 19 214 43 81 109 106 143 54 16 -23 19 -59 23 -263
l5 -235 73 -3 c71 -3 72 -3 72 23 0 23 -3 25 -45 25 l-45 0 0 185 c0 221 -10
277 -57 324 -30 30 -38 33 -74 28 -44 -6 -82 -35 -106 -80 l-15 -29 -20 41
c-28 56 -79 82 -128 64z"/>
<path d="M5809 1446 c-51 -13 -98 -44 -128 -82 l-20 -26 -5 24 c-3 12 -7 37
-8 53 -3 28 -6 30 -38 27 -89 -7 -140 -36 -112 -64 8 -8 24 -9 57 -1 l45 10
-2 -231 -3 -231 -68 -3 c-64 -3 -68 -4 -65 -25 3 -22 4 -22 218 -22 208 0 215
1 215 20 0 19 -8 20 -117 23 l-118 3 0 173 0 173 29 40 c35 48 104 84 172 91
l48 4 3 -58 c3 -51 6 -59 23 -59 18 0 20 8 23 73 2 46 -2 79 -9 88 -14 17 -77
17 -140 0z"/>
<path d="M6414 1442 c-62 -22 -101 -51 -136 -104 -36 -53 -48 -98 -48 -179 0
-131 55 -229 154 -275 72 -33 181 -33 252 0 61 28 94 61 94 93 0 33 -25 29
-71 -11 -85 -72 -215 -74 -296 -3 -54 47 -73 97 -73 192 0 120 42 192 132 229
45 19 148 20 198 2 34 -12 35 -15 43 -77 9 -73 27 -100 51 -79 22 17 21 96 -2
140 -38 77 -186 113 -298 72z"/>
<path d="M7988 1444 c-27 -8 -57 -27 -72 -44 -30 -37 -42 -105 -26 -154 20
-63 59 -82 244 -122 98 -21 126 -44 126 -104 0 -85 -88 -127 -209 -100 -73 16
-127 67 -137 129 -5 31 -11 41 -23 39 -13 -3 -16 -20 -16 -108 0 -92 2 -105
18 -108 14 -3 17 4 17 34 l0 38 28 -27 c43 -41 93 -57 180 -57 95 0 154 26
183 80 36 66 19 165 -35 208 -16 12 -75 31 -148 48 -76 18 -131 36 -145 49
-25 21 -32 61 -19 102 17 53 160 72 243 32 45 -22 62 -44 73 -94 8 -42 36 -45
44 -4 8 40 8 132 0 153 -10 27 -44 20 -44 -9 0 -28 -12 -32 -30 -10 -17 21
-105 45 -159 44 -25 0 -67 -7 -93 -15z"/>
<path d="M8810 1451 c-120 -37 -190 -144 -190 -290 0 -135 49 -230 144 -276
50 -24 64 -27 140 -24 75 4 89 7 128 34 124 87 161 267 87 421 -33 70 -78 110
-147 130 -49 15 -122 17 -162 5z m170 -71 c131 -67 149 -324 30 -423 -97 -82
-244 -48 -300 69 -30 62 -33 187 -6 249 21 49 61 93 101 111 46 20 129 17 175
-6z"/>
<path d="M10390 1451 c-52 -17 -90 -42 -103 -69 -36 -71 -31 -137 15 -182 30
-31 72 -46 212 -76 100 -21 126 -44 126 -108 0 -37 -5 -48 -30 -70 -39 -32
-106 -42 -177 -27 -72 17 -128 68 -138 129 -5 33 -11 42 -23 40 -15 -3 -17
-19 -17 -108 0 -92 2 -105 18 -108 12 -3 19 5 23 26 l6 30 44 -31 c39 -28 53
-31 132 -35 74 -4 97 -1 135 16 68 30 89 69 85 156 -4 63 -6 71 -39 100 -29
27 -56 38 -165 64 -144 35 -164 49 -164 111 0 59 34 84 121 89 116 7 199 -39
199 -110 0 -32 27 -50 41 -27 13 20 11 173 -2 186 -17 17 -39 4 -39 -23 l0
-23 -50 26 c-53 27 -162 40 -210 24z"/>
<path d="M11166 1445 c-57 -20 -88 -46 -110 -89 -23 -46 -13 -89 21 -94 22 -3
37 27 45 87 4 31 52 49 134 50 93 1 124 -31 137 -146 l5 -42 -57 -6 c-190 -21
-239 -37 -278 -95 -28 -40 -32 -134 -8 -181 48 -91 222 -93 316 -3 l25 24 12
-34 c22 -61 101 -72 156 -21 47 43 25 83 -25 46 -15 -11 -36 -21 -47 -21 -38
0 -42 18 -42 195 0 193 -12 254 -57 297 -16 15 -41 32 -56 37 -39 15 -124 13
-171 -4z m234 -360 c0 -66 -3 -79 -24 -100 -68 -68 -200 -93 -249 -47 -48 45
-40 136 16 170 34 21 150 47 230 51 l27 1 0 -75z"/>
<path d="M9455 1443 c-89 -20 -96 -24 -93 -46 3 -19 8 -22 50 -20 l47 3 3
-203 c3 -201 3 -204 30 -244 33 -50 80 -73 152 -73 69 0 111 17 164 65 l41 36
3 -43 c3 -42 4 -43 43 -46 67 -5 120 10 123 36 3 21 0 22 -57 22 l-61 0 -2
258 -3 257 -38 -2 c-21 -2 -56 -7 -78 -13 -33 -9 -40 -15 -37 -33 3 -20 8 -22
51 -20 l47 3 0 -180 0 -180 -41 -40 c-48 -47 -128 -76 -181 -66 -19 3 -47 20
-64 37 l-29 30 -3 212 c-1 117 -4 222 -7 235 -5 22 -17 25 -60 15z"/>
<path d="M3680 445 c0 -13 56 -15 440 -15 384 0 440 2 440 15 0 13 -56 15
-440 15 -384 0 -440 -2 -440 -15z"/>
</g>
</svg>
